<?xml version="1.0" standalone="no"?>
<!DOCTYPE svg PUBLIC "-//W3C//DTD SVG 20010904//EN"
 "http://www.w3.org/TR/2001/REC-SVG-20010904/DTD/svg10.dtd">
<svg version="1.0" xmlns="http://www.w3.org/2000/svg"
 width="255.000000pt" height="197.000000pt" viewBox="0 0 255.000000 197.000000"
 preserveAspectRatio="xMidYMid meet">

<g transform="translate(0.000000,197.000000) scale(0.100000,-0.100000)"
fill="#000000" stroke="none">
<path d="M1163 1955 c-87 -19 -158 -59 -228 -130 -92 -90 -135 -195 -135 -324
0 -89 18 -162 54 -227 14 -26 26 -48 26 -50 0 -2 -141 -4 -314 -4 l-313 0 -17
-45 c-25 -65 -95 -137 -166 -171 l-60 -28 0 -217 0 -216 47 -18 c63 -24 154
-115 177 -177 l18 -47 117 -3 116 -3 73 -140 c41 -77 75 -141 77 -143 1 -2 41
13 87 32 345 143 716 140 1064 -7 l81 -34 74 149 73 148 117 0 116 0 14 42
c18 58 118 159 182 183 l47 18 0 217 0 216 -55 23 c-70 29 -134 91 -169 164
l-27 57 -292 0 -293 0 33 68 c70 143 69 284 -4 430 -30 60 -101 138 -159 174
-103 65 -245 90 -361 63z m292 -55 c93 -44 175 -126 217 -217 28 -58 33 -82
36 -163 3 -78 0 -107 -17 -158 -41 -120 -117 -209 -224 -262 -179 -87 -373
-55 -513 85 -237 236 -143 622 181 738 39 14 72 17 150 14 89 -3 108 -7 170
-37z m-540 -720 c4 -7 -101 -10 -307 -10 l-313 0 -25 -46 c-33 -63 -98 -127
-159 -158 l-51 -26 0 -180 0 -180 27 -11 c52 -20 123 -81 163 -142 l42 -62 81
-5 c52 -3 82 -9 85 -17 3 -10 -20 -13 -92 -13 l-96 0 -22 46 c-28 61 -102 133
-166 163 l-52 24 0 198 0 198 54 24 c66 30 127 90 161 157 l25 50 320 0 c202
0 321 -4 325 -10z m1329 -29 c26 -61 100 -137 161 -167 l55 -26 0 -198 0 -198
-56 -28 c-63 -32 -147 -117 -165 -169 l-13 -35 -98 0 c-82 0 -96 2 -92 15 5
12 24 15 88 15 l82 0 17 35 c25 52 95 124 154 157 l53 30 0 178 0 178 -53 30
c-60 34 -126 102 -157 161 l-21 42 -294 -3 c-162 -2 -295 0 -295 3 0 17 37 19
315 19 l301 0 18 -39z m-166 -173 c8 -8 12 -60 12 -166 l0 -154 -33 -33 c-38
-38 -72 -50 -120 -41 -78 15 -92 66 -18 66 53 0 61 17 61 123 0 69 -4 89 -20
110 -34 43 -26 62 33 85 62 25 69 26 85 10z m-1743 -9 c11 0 43 3 71 6 63 9
110 -12 121 -53 10 -37 5 -53 -23 -83 l-24 -25 37 -25 c21 -13 44 -37 52 -54
20 -41 -2 -101 -48 -132 -31 -21 -45 -23 -171 -23 -119 0 -141 2 -161 19 l-23
18 22 28 c19 24 22 40 22 119 0 61 -5 100 -15 120 -8 15 -15 35 -15 43 0 20
79 55 110 47 14 -3 34 -6 45 -5z m484 -3 c7 -8 45 -75 85 -148 40 -73 81 -147
92 -165 26 -44 11 -56 -75 -59 -78 -3 -101 9 -82 45 25 46 17 52 -66 49 -66
-3 -78 -6 -81 -21 -2 -10 4 -28 14 -39 18 -19 18 -20 -1 -34 -11 -8 -29 -13
-40 -10 -11 3 -37 6 -58 6 -49 0 -58 22 -24 58 14 15 48 74 77 131 48 97 50
104 35 121 -24 26 -16 40 35 60 57 23 75 24 89 6z m388 -2 c3 -9 1 -25 -5 -35
-8 -12 -12 -66 -12 -144 0 -115 1 -125 21 -135 31 -17 76 -2 104 35 62 80 129
28 72 -56 l-23 -34 -164 0 c-159 0 -165 1 -168 21 -2 11 6 28 18 39 18 16 20
30 20 135 0 92 -3 120 -15 130 -16 13 -20 42 -8 53 3 4 39 7 80 7 59 0 75 -3
80 -16z m451 4 c5 -7 44 -76 87 -153 42 -77 84 -152 93 -167 13 -21 14 -30 5
-39 -12 -12 -135 -20 -160 -11 -15 5 -17 38 -3 47 6 3 10 15 10 26 0 17 -7 19
-80 19 -78 0 -80 -1 -80 -24 0 -14 5 -28 10 -31 14 -9 12 -42 -2 -47 -7 -2
-39 -2 -71 0 -67 4 -81 21 -49 55 11 12 46 71 77 130 55 103 56 109 40 127
-24 26 -16 40 35 60 55 22 75 24 88 8z m636 -4 c3 -8 1 -24 -4 -34 -14 -26
-13 -237 2 -277 16 -45 2 -57 -72 -59 -69 -3 -93 13 -71 48 20 32 15 252 -6
284 -25 39 -4 54 77 54 52 0 69 -4 74 -16z m-699 -464 c112 -24 271 -75 357
-115 l58 -26 -76 -152 c-42 -84 -78 -154 -80 -156 -2 -2 -44 13 -95 33 -314
126 -700 126 -1017 0 -50 -21 -94 -35 -96 -33 -2 2 -38 73 -80 156 l-76 153
66 30 c124 56 314 109 464 130 36 5 157 7 270 5 162 -2 226 -8 305 -25z"/>
<path d="M1136 1890 c-293 -104 -379 -468 -162 -686 61 -60 137 -99 229 -115
173 -31 356 64 438 229 32 64 34 72 34 177 0 103 -2 114 -32 177 -41 87 -113
160 -199 200 -90 42 -219 49 -308 18z m86 -183 c43 -22 46 -22 73 -6 15 10 43
20 63 24 69 13 260 -108 292 -185 32 -77 -29 -158 -173 -229 -92 -46 -136 -51
-183 -22 -28 17 -33 18 -47 4 -8 -8 -35 -17 -58 -20 -38 -4 -58 2 -136 41
-115 58 -173 118 -173 178 0 52 21 89 72 131 61 49 169 104 209 106 8 1 36 -9
61 -22z"/>
<path d="M956 1559 c-34 -27 -37 -88 -4 -119 21 -19 34 -20 315 -20 l294 0 24
25 c16 15 25 36 25 55 0 19 -9 40 -25 55 l-24 25 -289 0 c-278 0 -290 -1 -316
-21z m598 -59 c1 -28 -2 -51 -6 -51 -27 -6 -30 0 -32 48 -1 39 3 53 14 56 22
5 24 2 24 -53z m-481 26 c-1 -11 5 -28 12 -39 13 -18 13 -18 21 5 5 12 9 30 9
38 0 8 9 16 20 18 15 2 26 -9 44 -43 13 -25 28 -45 33 -45 6 0 8 20 6 45 -3
41 -1 45 19 45 21 0 23 -5 23 -45 0 -43 11 -58 26 -34 3 6 15 9 25 6 18 -5 33
19 34 53 0 8 9 16 20 18 15 2 27 -9 45 -43 32 -58 55 -57 54 3 -1 34 3 42 18
42 15 0 18 -8 18 -44 0 -24 -6 -48 -13 -54 -14 -12 -97 -4 -97 9 0 5 -9 9 -20
9 -11 0 -20 -6 -20 -14 0 -11 -19 -14 -95 -13 -68 2 -95 5 -95 15 0 6 -9 12
-20 12 -11 0 -19 -5 -17 -12 1 -8 -20 -13 -70 -15 l-73 -4 0 56 0 56 48 -3
c40 -3 47 -6 45 -22z"/>
<path d="M1020 1519 c0 -5 5 -7 10 -4 6 3 10 8 10 11 0 2 -4 4 -10 4 -5 0 -10
-5 -10 -11z"/>
<path d="M1020 1480 c0 -13 5 -20 13 -17 6 2 12 10 12 17 0 7 -6 15 -12 18 -8
2 -13 -5 -13 -18z"/>
<path d="M352 909 c-16 -6 -22 -17 -22 -38 0 -34 20 -45 55 -29 60 27 29 90
-33 67z"/>
<path d="M335 768 c-4 -9 -5 -40 -3 -69 l3 -54 37 -3 c65 -6 101 58 61 107
-23 27 -90 40 -98 19z"/>
<path d="M756 802 c-21 -41 -21 -42 19 -42 19 0 35 2 35 5 0 2 -9 19 -19 36
l-19 31 -16 -30z"/>
<path d="M1587 795 l-17 -35 40 0 40 0 -17 35 c-9 19 -20 35 -23 35 -3 0 -14
-16 -23 -35z"/>
<path d="M2402 1263 c-7 -2 -17 -14 -23 -26 l-12 -22 24 21 c13 12 31 24 39
27 13 5 13 5 0 5 -8 0 -21 -2 -28 -5z"/>
<path d="M2479 1259 c50 -20 67 -80 35 -129 l-16 -25 21 24 c29 33 28 85 -4
116 -13 14 -32 25 -42 24 -14 0 -12 -3 6 -10z"/>
<path d="M2411 1183 c1 -32 4 -45 6 -30 4 24 9 28 31 25 19 -2 28 -10 30 -25
6 -40 20 -24 18 20 -3 57 -11 67 -52 67 l-34 0 1 -57z m72 33 c8 -19 -1 -26
-35 -26 -21 0 -28 5 -28 20 0 15 7 20 29 20 16 0 31 -6 34 -14z"/>
<path d="M2361 1184 c0 -18 7 -40 17 -51 9 -10 13 -13 8 -5 -5 7 -13 30 -17
50 -7 37 -7 37 -8 6z"/>
<path d="M2438 1093 c6 -2 18 -2 25 0 6 3 1 5 -13 5 -14 0 -19 -2 -12 -5z"/>
</g>
</svg>
